<svg width="33" height="32" viewBox="0 0 33 32" fill="none" xmlns="http://www.w3.org/2000/svg">
<path d="M30.6429 0H2.34978C1.05335 0 0 1.03571 0 2.30714V29.6929C0 30.9643 1.05335 32 2.34978 32H30.6429C31.9393 32 33 30.9643 33 29.6929V2.30714C33 1.03571 31.9393 0 30.6429 0ZM9.97366 27.4286H5.08259V12.1571H9.98103V27.4286H9.97366ZM7.52812 10.0714C5.95915 10.0714 4.69219 8.83571 4.69219 7.32143C4.69219 5.80714 5.95915 4.57143 7.52812 4.57143C9.08973 4.57143 10.3641 5.80714 10.3641 7.32143C10.3641 8.84286 9.0971 10.0714 7.52812 10.0714ZM28.3078 27.4286H23.4167V20C23.4167 18.2286 23.3799 15.95 20.8754 15.95C18.3268 15.95 17.9364 17.8786 17.9364 19.8714V27.4286H13.0453V12.1571H17.7375V14.2429H17.8038C18.4594 13.0429 20.0578 11.7786 22.4371 11.7786C27.3871 11.7786 28.3078 14.9429 28.3078 19.0571V27.4286Z" fill="#D2BC79"/>
</svg>
