<svg width="28" height="28" viewBox="0 0 28 28" fill="none" xmlns="http://www.w3.org/2000/svg">
<path d="M27.2529 26C27.2529 26.1875 27.2165 26.3646 27.1436 26.5312C27.0707 26.6875 26.9717 26.8281 26.8467 26.9531C26.7217 27.0677 26.5759 27.1615 26.4092 27.2344C26.2529 27.2969 26.0863 27.3281 25.9092 27.3281C25.5446 27.3281 25.2321 27.1979 24.9717 26.9375L17.7842 19.75C16.8363 20.4792 15.805 21.0365 14.6904 21.4219C13.5863 21.8073 12.4352 22 11.2373 22C10.2582 22 9.31024 21.875 8.39357 21.625C7.48732 21.3646 6.63837 21.0052 5.8467 20.5469C5.06545 20.0781 4.3467 19.5208 3.69045 18.875C3.04462 18.2292 2.49253 17.5104 2.0342 16.7188C1.57587 15.9271 1.21649 15.0781 0.956074 14.1719C0.706074 13.2552 0.581074 12.3073 0.581074 11.3281C0.581074 10.349 0.706074 9.40625 0.956074 8.5C1.21649 7.59375 1.57587 6.74479 2.0342 5.95312C2.50295 5.16146 3.06024 4.44271 3.70607 3.79688C4.35191 3.15104 5.07066 2.59896 5.86232 2.14062C6.65399 1.67188 7.50295 1.3125 8.4092 1.0625C9.31545 0.802083 10.2582 0.671875 11.2373 0.671875C12.7061 0.671875 14.0863 0.953125 15.3779 1.51562C16.68 2.06771 17.8102 2.82812 18.7686 3.79688C19.7373 4.76562 20.5029 5.89583 21.0654 7.1875C21.6279 8.47917 21.9092 9.85938 21.9092 11.3281C21.9092 12.526 21.7165 13.6823 21.3311 14.7969C20.9457 15.901 20.3884 16.9271 19.6592 17.875L26.8467 25.0625C26.9821 25.1979 27.0811 25.3385 27.1436 25.4844C27.2165 25.6302 27.2529 25.8021 27.2529 26ZM11.2373 19.3281H11.3936C12.4769 19.3281 13.4925 19.1146 14.4404 18.6875C15.3988 18.25 16.2321 17.6667 16.9404 16.9375C17.6488 16.1979 18.2061 15.349 18.6123 14.3906C19.029 13.4219 19.2373 12.401 19.2373 11.3281C19.2373 10.224 19.029 9.1875 18.6123 8.21875C18.1957 7.23958 17.6227 6.39062 16.8936 5.67188C16.1748 4.94271 15.3259 4.36979 14.3467 3.95312C13.3779 3.53646 12.3415 3.32812 11.2373 3.32812C10.1332 3.32812 9.09149 3.53646 8.11232 3.95312C7.14357 4.36979 6.29462 4.94271 5.56545 5.67188C4.8467 6.39062 4.27899 7.23958 3.86232 8.21875C3.44566 9.1875 3.23732 10.224 3.23732 11.3281C3.23732 12.4323 3.44566 13.474 3.86232 14.4531C4.27899 15.4219 4.8467 16.2708 5.56545 17C6.29462 17.7188 7.14357 18.2865 8.11232 18.7031C9.09149 19.1198 10.1332 19.3281 11.2373 19.3281Z" fill="white" fill-opacity="0.8"/>
</svg>
