<svg width="255" height="260" viewBox="0 0 255 260" fill="none" xmlns="http://www.w3.org/2000/svg">
<ellipse cx="127.5" cy="130" rx="127.5" ry="130" fill="#D2BC79"/>
<path d="M74.1903 124.5C77.1253 127.849 76.5413 133.333 73.438 136.052C70.3347 138.772 65.4396 138.262 62.5046 134.913C59.5696 131.564 59.706 126.644 62.8094 123.924C65.9127 121.205 71.2553 121.151 74.1903 124.5Z" fill="white"/>
<line x1="102.797" y1="176.992" x2="202.149" y2="92.2354" stroke="white" stroke-width="15"/>
<path d="M206.132 88.5899C208.882 91.7274 209.602 95.9484 206.69 98.4998C203.779 101.051 197.919 101.496 195.169 98.3584C192.419 95.2209 193.279 90.0515 196.19 87.5C199.102 84.9485 203.382 85.4524 206.132 88.5899Z" fill="white"/>
<line x1="111.28" y1="174.672" x2="67.7704" y2="129.184" stroke="white" stroke-width="15"/>
</svg>
