<svg width="33" height="33" viewBox="0 0 33 33" fill="none" xmlns="http://www.w3.org/2000/svg">
<g clip-path="url(#clip0_323_103)">
<path d="M15.2589 25.4425L15.1564 25.3482L7.97234 18.6767C6.71349 17.5081 6 15.8679 6 14.1498V14.0145C6 11.1277 8.05025 8.65103 10.8878 8.10976C12.5034 7.79813 14.1559 8.17127 15.4721 9.09798C15.8412 9.36041 16.1856 9.66385 16.4973 10.0124C16.6695 9.81557 16.854 9.63515 17.0508 9.46703C17.2025 9.33581 17.3584 9.2128 17.5224 9.09798C18.8386 8.17127 20.4911 7.79813 22.1067 8.10566C24.9443 8.64693 26.9945 11.1277 26.9945 14.0145V14.1498C26.9945 15.8679 26.281 17.5081 25.0222 18.6767L17.8381 25.3482L17.7356 25.4425C17.3994 25.7542 16.9565 25.9305 16.4973 25.9305C16.038 25.9305 15.5951 25.7583 15.2589 25.4425ZM15.8043 12.1898C15.7879 12.1775 15.7756 12.161 15.7633 12.1446L15.0334 11.3245L15.0293 11.3204C14.0821 10.2584 12.651 9.77456 11.2568 10.0411C9.346 10.406 7.96824 12.0708 7.96824 14.0145V14.1498C7.96824 15.3184 8.45619 16.4379 9.3132 17.2334L16.4973 23.9049L23.6813 17.2334C24.5383 16.4379 25.0263 15.3184 25.0263 14.1498V14.0145C25.0263 12.0749 23.6485 10.406 21.7418 10.0411C20.3476 9.77456 18.9124 10.2625 17.9693 11.3204C17.9693 11.3204 17.9693 11.3204 17.9652 11.3245C17.9611 11.3286 17.9652 11.3245 17.9611 11.3286L17.2312 12.1487C17.2189 12.1651 17.2025 12.1775 17.1902 12.1939C17.0057 12.3784 16.7556 12.4809 16.4973 12.4809C16.2389 12.4809 15.9888 12.3784 15.8043 12.1939V12.1898Z" fill="#D2BC79"/>
</g>
<circle cx="16.402" cy="16.4019" r="15.902" stroke="#D2BC79"/>
<defs>
<clipPath id="clip0_323_103">
<rect width="20.9945" height="20.9945" fill="white" transform="translate(6 5.99994)"/>
</clipPath>
</defs>
</svg>
